<svg xmlns="http://www.w3.org/2000/svg" width="500" height="500" viewBox="0 0 500 500" version="1.1">
	<path d="M 233.661 98.086 C 225.832 99.051, 207.867 103.319, 205.665 104.737 C 205.024 105.149, 203.600 105.560, 202.500 105.649 C 197.384 106.063, 175.022 116.028, 168.329 120.876 C 164.792 123.439, 164.415 124.116, 164.781 127.248 C 165.096 129.949, 164.717 131.085, 163.127 132.198 C 161.270 133.499, 161.150 134.185, 161.921 139.067 C 162.393 142.050, 162.413 147.077, 161.966 150.239 C 161.071 156.571, 155.973 166.578, 153.522 166.813 C 152.685 166.893, 150.762 167.021, 149.250 167.098 C 147.738 167.174, 146.169 167.746, 145.765 168.369 C 145.240 169.177, 145.026 169.143, 145.015 168.250 C 145.007 167.563, 143.988 166.994, 142.750 166.987 C 141.512 166.980, 136.900 165.816, 132.500 164.400 C 128.100 162.983, 123.037 161.775, 121.250 161.714 C 119.463 161.653, 118 161.168, 118 160.635 C 118 160.102, 117.716 159.951, 117.369 160.298 C 117.021 160.645, 115.857 160.459, 114.781 159.883 C 113.705 159.307, 111.627 158.622, 110.162 158.360 C 108.698 158.098, 106.140 157.086, 104.479 156.111 C 102.817 155.135, 100.455 154.411, 99.229 154.502 C 98.003 154.592, 97 154.216, 97 153.666 C 97 153.116, 96.770 152.897, 96.488 153.179 C 96.206 153.460, 96.933 155.856, 98.104 158.501 C 100.120 163.059, 109.299 173.289, 113.396 175.543 C 115.027 176.441, 115.119 176.908, 114.060 178.888 C 113.029 180.813, 112.290 181.089, 109.544 180.574 C 106.618 180.025, 106.150 180.260, 105.250 182.729 C 104.695 184.253, 103.085 188.650, 101.673 192.500 C 97.465 203.972, 95.120 212.113, 94.037 219 C 92.625 227.981, 92.581 227.798, 96.555 229.459 L 100.111 230.944 99.621 236.722 C 99.352 239.900, 99.102 242.965, 99.066 243.534 C 99.030 244.103, 97.650 245.366, 96 246.341 C 93.105 248.051, 93.001 248.366, 93.020 255.307 C 93.031 259.263, 93.551 265.650, 94.176 269.500 C 94.800 273.350, 95.354 277.725, 95.406 279.222 C 95.495 281.790, 95.709 281.910, 99.204 281.351 C 105.933 280.275, 111.785 281.812, 116.234 285.823 C 125.651 294.313, 126.561 307.583, 118.317 316.190 C 116.063 318.544, 115.989 318.816, 117.729 318.361 C 119.330 317.942, 119.843 318.465, 120.359 321.045 C 121.230 325.402, 121.168 326.222, 120.021 325.513 C 118.498 324.572, 115 326.871, 115 328.813 C 115 331.770, 117.967 335.145, 120 334.500 C 122.315 333.765, 125 337.376, 125 341.223 C 125 343.159, 126.287 345.283, 129.250 348.238 C 133.458 352.433, 136.738 358.190, 137.650 362.977 C 138.278 366.277, 138.175 366.243, 142.314 364.513 C 144.306 363.681, 146.175 363, 146.468 363 C 146.761 363, 147 365.234, 147 367.965 C 147 372.099, 147.376 373.126, 149.250 374.104 C 150.487 374.750, 154.047 377.177, 157.161 379.498 C 164.980 385.326, 182.714 395.115, 193.463 399.536 C 208.970 405.915, 233.819 411, 249.483 411 C 258.810 411, 277.703 408.330, 288.822 405.441 C 300.500 402.407, 317.793 394.879, 329.139 387.889 C 341.937 380.005, 361 364.230, 361 361.524 C 361 360.163, 364.183 355.699, 371.579 346.688 C 377.743 339.179, 383.908 330.305, 385.086 327.245 C 386.053 324.733, 390.556 322.423, 396.271 321.506 C 401.018 320.745, 406.515 315.998, 408.056 311.331 C 409.549 306.807, 408.826 300.190, 406.440 296.549 L 404.594 293.731 402.862 297.808 C 399.786 305.052, 389.347 309.987, 381.045 308.121 C 378.283 307.501, 376.949 307.575, 376.624 308.366 C 376.367 308.990, 376.122 307.570, 376.079 305.210 C 375.980 299.830, 378.929 293.900, 383.227 290.834 C 385.707 289.066, 387.838 288.500, 392.020 288.500 C 397.247 288.500, 397.539 288.367, 397.520 286 C 397.503 283.884, 397.961 283.500, 400.500 283.500 L 403.500 283.500 404.675 275 C 405.321 270.325, 405.883 264.806, 405.925 262.737 L 406 258.973 402.500 260.436 L 399 261.898 398.995 255.199 C 398.992 251.515, 398.793 244, 398.552 238.500 C 398.206 230.589, 398.291 229.649, 398.958 234 C 399.422 237.025, 399.847 242.794, 399.901 246.820 C 399.996 253.814, 400.100 254.125, 402.250 253.820 C 404.251 253.535, 404.600 252.687, 405.398 246.166 C 406.460 237.497, 404.615 222, 402.521 222 C 401.246 222, 400.078 218.032, 399.910 213.125 C 399.828 210.744, 399.729 210.816, 398.844 213.893 C 398.308 215.759, 396.886 218.106, 395.684 219.110 C 393.470 220.958, 391.493 221.630, 392.351 220.241 C 392.609 219.824, 392.467 217.554, 392.036 215.197 C 391.260 210.955, 391.292 210.892, 395.126 208.936 C 397.578 207.685, 399 206.260, 399 205.054 C 399 203.337, 398.341 203.492, 392.334 206.623 L 385.668 210.097 380.834 205.336 C 378.175 202.718, 376 200.238, 376 199.826 C 376 199.414, 378.424 195.517, 381.387 191.165 C 384.942 185.946, 386.495 182.801, 385.953 181.924 C 385.501 181.193, 385.347 179.448, 385.611 178.047 C 385.918 176.423, 385.040 173.507, 383.189 170 C 380.613 165.118, 379.973 164.535, 377.491 164.812 C 375.006 165.089, 373.059 163.784, 373.015 161.812 C 373.007 161.434, 374.992 159.694, 377.427 157.945 C 379.862 156.196, 382.416 153.411, 383.101 151.755 C 384.245 148.994, 385.047 142, 384.219 142 C 384.025 142, 382.434 143.072, 380.683 144.383 C 362.680 157.857, 334 162.805, 334 152.437 C 334 149.427, 337.160 142.935, 339.600 140.933 C 341.198 139.622, 341.286 139.713, 340.634 142 C 338.574 149.232, 338.682 150.745, 341.383 152.515 C 343.717 154.045, 344.712 154.092, 350.716 152.959 C 358.077 151.570, 374.336 143.934, 379.892 139.255 C 382.896 136.726, 383.149 136.148, 382.107 134.200 C 381.459 132.990, 379.836 131.283, 378.499 130.407 C 376.217 128.912, 375.868 128.958, 372.784 131.157 C 370.978 132.446, 367.250 134.542, 364.500 135.816 C 361.750 137.090, 358.507 139.062, 357.294 140.199 C 356.081 141.335, 354.056 142.386, 352.794 142.532 C 351.532 142.679, 350.050 142.898, 349.500 143.018 C 346.932 143.580, 346 142.776, 346 140 C 346 138.119, 345.486 137, 344.622 137 C 342.276 137, 340.738 134.359, 341.861 132.260 C 342.411 131.233, 342.554 129.912, 342.180 129.325 C 339.651 125.356, 306.340 107.715, 297.054 105.427 C 296.199 105.216, 292.350 104.111, 288.500 102.970 C 271.684 97.988, 250.064 96.063, 233.661 98.086 M 250.813 102.683 C 251.534 102.972, 252.397 102.936, 252.729 102.604 C 253.061 102.272, 252.471 102.036, 251.417 102.079 C 250.252 102.127, 250.015 102.364, 250.813 102.683 M 217 111.933 C 217 112.446, 216.123 113.144, 215.051 113.484 C 213.872 113.858, 213.322 114.675, 213.658 115.551 C 213.964 116.348, 213.689 117, 213.048 117 C 212.407 117, 212.100 117.354, 212.368 117.786 C 212.635 118.218, 212.037 118.571, 211.040 118.571 C 210.022 118.571, 209.433 118.035, 209.697 117.348 C 210.032 116.475, 209.212 116.276, 206.833 116.652 C 205 116.942, 202.600 117.161, 201.500 117.138 C 199.671 117.101, 199.714 117.272, 202 119.135 C 203.375 120.256, 203.938 120.883, 203.250 120.528 C 202.563 120.173, 202 120.267, 202 120.737 C 202 121.207, 200.537 121.703, 198.750 121.840 C 196.963 121.977, 193.925 122.450, 192 122.891 L 188.500 123.693 193.500 124.487 C 196.379 124.943, 199.724 126.302, 201.386 127.690 C 204.424 130.226, 205.384 130.237, 214.750 127.831 C 218.618 126.838, 219.571 125.741, 219.130 122.786 C 219.072 122.393, 219.767 122.357, 220.676 122.706 C 221.873 123.165, 222.103 122.975, 221.510 122.015 C 220.953 121.115, 221.076 120.929, 221.894 121.435 C 222.753 121.965, 222.793 122.544, 222.036 123.457 C 220.950 124.766, 221.088 124.750, 231.500 122.417 C 233.150 122.048, 235.550 120.790, 236.832 119.622 C 238.482 118.121, 239.068 117.939, 238.832 119 C 238.650 119.825, 237.837 120.766, 237.028 121.091 C 236.218 121.416, 237.905 121.675, 240.778 121.667 C 245.043 121.655, 246 121.337, 246 119.933 C 246 118.988, 246.675 117.955, 247.500 117.638 C 248.325 117.322, 249 117.461, 249 117.948 C 249 118.435, 248.438 119.060, 247.750 119.338 C 247.063 119.615, 248.300 119.885, 250.500 119.936 C 253.469 120.006, 254.113 120.281, 253 121 C 251.798 121.777, 251.968 121.972, 253.857 121.985 C 255.544 121.996, 256.050 121.574, 255.638 120.500 C 254.908 118.596, 256.633 118.526, 257.700 120.415 C 258.201 121.302, 261.115 122.091, 265.500 122.529 C 269.350 122.913, 272.863 123.443, 273.307 123.708 C 273.751 123.972, 275.225 124.311, 276.582 124.460 C 278.662 124.688, 278.957 124.398, 278.459 122.615 C 277.989 120.930, 278.082 120.805, 278.919 122 C 279.497 122.825, 279.976 124.287, 279.985 125.250 C 279.993 126.213, 280.257 127, 280.571 127 C 281.800 127, 283.639 124.416, 283.247 123.241 C 283.019 122.558, 283.396 122, 284.083 122 C 284.771 122, 285.037 122.296, 284.675 122.658 C 284.313 123.020, 284.576 124.006, 285.259 124.850 C 286.285 126.118, 286.240 126.251, 285 125.616 C 284.175 125.193, 284.569 125.788, 285.876 126.936 C 289.060 129.734, 292.967 130.661, 294.092 128.885 C 294.575 128.123, 294.976 127.853, 294.985 128.285 C 294.993 128.717, 295.913 128.582, 297.028 127.985 C 298.143 127.388, 298.792 126.472, 298.469 125.950 C 298.141 125.419, 299.563 124.956, 301.691 124.900 C 305.516 124.800, 311.371 123.374, 309.500 122.998 C 308.950 122.888, 307.083 122.874, 305.351 122.967 C 303.619 123.060, 301.917 122.675, 301.569 122.112 C 301.221 121.548, 300.220 121.362, 299.344 121.698 C 298.393 122.063, 297.368 121.621, 296.795 120.599 C 295.993 119.165, 295.578 119.100, 294.227 120.195 C 292.890 121.278, 292.755 121.269, 293.433 120.143 C 294.066 119.092, 293.714 118.938, 291.875 119.458 C 290.028 119.982, 289.833 119.894, 291 119.065 C 292.268 118.165, 292.152 117.905, 290.250 117.383 C 289.012 117.044, 288 116.380, 288 115.908 C 288 115.436, 286.875 115.477, 285.500 116 C 283.434 116.786, 282.997 116.651, 282.985 115.225 C 282.976 114.276, 282.549 112.836, 282.036 112.024 C 281.274 110.819, 280.922 111.002, 280.115 113.024 C 279.350 114.941, 279.112 115.081, 279.063 113.643 C 279.020 112.371, 278.501 111.977, 277.418 112.393 C 276.548 112.727, 275.648 113, 275.418 113 C 275.188 113, 275 113.627, 275 114.393 C 275 115.159, 274.415 116.010, 273.700 116.285 C 272.799 116.631, 272.460 115.918, 272.596 113.963 C 272.764 111.534, 272.514 111.244, 270.798 111.879 C 269.702 112.285, 266.599 112.333, 263.902 111.987 C 261.206 111.642, 259 111.728, 259 112.179 C 259 112.631, 258.212 113.007, 257.250 113.015 C 255.754 113.028, 255.718 113.172, 257 114 C 258.282 114.828, 258.246 114.972, 256.750 114.985 C 255.756 114.993, 254.986 114.244, 254.968 113.250 C 254.939 111.620, 254.842 111.625, 253.550 113.329 C 252.394 114.855, 251.799 114.963, 249.961 113.979 C 248.475 113.184, 247.980 113.158, 248.438 113.900 C 248.812 114.505, 248.627 115, 248.028 115 C 247.428 115, 246.678 114.325, 246.362 113.500 C 245.468 111.171, 242.738 111.601, 243.485 113.953 C 243.992 115.550, 243.707 115.829, 241.917 115.484 C 239.149 114.951, 238.134 114, 240.333 114 C 241.250 114, 242 113.625, 242 113.167 C 242 111.803, 239.129 112.222, 238.574 113.667 C 238.293 114.400, 237.572 115, 236.972 115 C 236.373 115, 236.207 114.474, 236.605 113.830 C 237.085 113.053, 236.791 112.866, 235.729 113.274 C 234.849 113.611, 233.909 113.350, 233.641 112.694 C 233.323 111.916, 232.864 111.849, 232.326 112.500 C 231.211 113.849, 229 114.226, 229 113.066 C 229 112.169, 224.514 112.564, 222.820 113.611 C 222.369 113.890, 222 114.991, 222 116.059 C 222 117.271, 221.343 117.970, 220.250 117.921 C 219.205 117.874, 219.003 117.639, 219.750 117.338 C 220.438 117.060, 220.993 116.083, 220.985 115.167 C 220.971 113.725, 220.838 113.703, 220 115 C 219.245 116.169, 219.027 115.893, 219.015 113.750 C 219.007 112.237, 218.550 111, 218 111 C 217.450 111, 217 111.420, 217 111.933 M 260 114 C 258.718 114.828, 258.754 114.972, 260.250 114.985 C 261.212 114.993, 262 114.550, 262 114 C 262 112.780, 261.887 112.780, 260 114 M 215 116.500 C 215 117.875, 215.445 119, 215.989 119 C 216.533 119, 216.884 117.875, 216.771 116.500 C 216.657 115.125, 216.212 114, 215.782 114 C 215.352 114, 215 115.125, 215 116.500 M 224 115.500 C 222.990 116.717, 223.030 117, 224.211 117 C 225.012 117, 225.667 116.325, 225.667 115.500 C 225.667 114.675, 225.572 114, 225.456 114 C 225.340 114, 224.685 114.675, 224 115.500 M 206 118.059 C 206 118.641, 206.450 118.840, 207 118.500 C 207.550 118.160, 208 117.684, 208 117.441 C 208 117.198, 207.550 117, 207 117 C 206.450 117, 206 117.477, 206 118.059 M 283.556 117.909 C 282.753 119.209, 285.197 119.843, 287.500 118.932 C 289.645 118.083, 289.629 118.063, 286.300 117.440 C 285.091 117.213, 283.856 117.424, 283.556 117.909 M 262.357 119.690 C 262.675 120.008, 264.114 120.397, 265.556 120.556 C 266.997 120.714, 267.913 120.579, 267.590 120.257 C 267.267 119.934, 265.828 119.545, 264.391 119.391 C 262.955 119.238, 262.039 119.373, 262.357 119.690 M 224.638 121.500 C 224.955 122.325, 225.671 123, 226.229 123 C 226.815 123, 226.718 122.365, 226 121.500 C 225.315 120.675, 224.599 120, 224.409 120 C 224.219 120, 224.322 120.675, 224.638 121.500 M 269.750 120.662 C 270.438 120.940, 271.563 120.940, 272.250 120.662 C 272.938 120.385, 272.375 120.158, 271 120.158 C 269.625 120.158, 269.063 120.385, 269.750 120.662 M 214.013 123.971 C 212.834 124.716, 212.976 124.878, 214.693 124.748 C 215.886 124.658, 216.641 124.228, 216.372 123.792 C 215.773 122.823, 215.835 122.819, 214.013 123.971 M 204.500 124.932 C 203.400 125.367, 201.825 125.489, 201 125.202 C 200.172 124.915, 199.860 125.075, 200.303 125.560 C 200.745 126.044, 202.995 126.559, 205.303 126.705 C 207.957 126.873, 208.999 126.653, 208.137 126.106 C 206.986 125.377, 206.986 125.158, 208.137 124.700 C 209.197 124.278, 209.166 124.156, 208 124.149 C 207.175 124.144, 205.600 124.497, 204.500 124.932 M 287.733 126.124 C 288.412 126.808, 289.219 127.115, 289.526 126.807 C 289.834 126.499, 289.279 125.940, 288.293 125.564 C 286.868 125.022, 286.753 125.136, 287.733 126.124 M 294 126.059 C 294 126.641, 294.450 126.840, 295 126.500 C 295.550 126.160, 296 125.684, 296 125.441 C 296 125.198, 295.550 125, 295 125 C 294.450 125, 294 125.477, 294 126.059 M 175 129.500 C 174.293 130.352, 173.497 130.830, 173.231 130.564 C 172.964 130.298, 171.388 130.782, 169.728 131.641 C 166.175 133.478, 167.488 134.960, 172.691 134.985 C 176.306 135.002, 177.712 133.563, 176.044 131.553 C 175.196 130.531, 175.237 130.080, 176.208 129.734 C 176.919 129.481, 177.227 128.976, 176.893 128.613 C 176.558 128.249, 175.707 128.648, 175 129.500 M 231 130.554 C 227.425 131.321, 222.475 132.673, 220 133.558 C 217.525 134.443, 214.889 135.359, 214.143 135.593 C 213.195 135.891, 213.836 137.183, 216.262 139.868 C 218.174 141.985, 219.921 144.264, 220.144 144.933 C 220.454 145.863, 222.657 145.741, 229.525 144.412 C 240.841 142.222, 259.900 142.260, 269 144.491 C 278.798 146.893, 279.185 146.855, 281.455 143.289 C 282.580 141.522, 283.735 140.060, 284.022 140.039 C 284.818 139.980, 287.113 153.008, 286.486 154.023 C 285.635 155.399, 283.002 153.985, 282.985 152.143 C 282.976 151.239, 282.554 149.843, 282.046 149.040 C 281.248 147.779, 280.868 147.810, 279.256 149.268 C 277.622 150.747, 276.342 150.836, 268.945 149.986 C 257.995 148.727, 241.159 148.746, 233.274 150.025 C 223.731 151.574, 205.124 157.713, 199.121 161.292 C 190.429 166.476, 179.604 177.167, 177.059 183.083 C 168.128 203.845, 171.445 232.815, 184.464 247.762 C 190.791 255.025, 192.120 254.482, 187.008 246.723 C 179.273 234.983, 177.750 229.739, 177.649 214.500 C 177.571 202.680, 177.795 200.955, 180.119 195.500 C 182.136 190.767, 183.079 189.575, 184.588 189.855 C 191.673 191.172, 195.686 191.084, 196.931 189.584 C 198.558 187.622, 200.667 187.521, 200.667 189.405 C 200.667 190.177, 200.062 190.577, 199.322 190.293 C 198.413 189.944, 198.178 190.299, 198.596 191.389 C 198.936 192.275, 199.953 193.007, 200.857 193.015 C 201.761 193.024, 203.160 193.448, 203.966 193.958 C 206.279 195.421, 200.436 197.349, 194.420 197.108 C 187.157 196.816, 184.436 199.426, 184.885 206.250 C 185.246 211.731, 194.541 214.156, 197.556 209.555 L 199.158 207.110 205.236 213.305 C 214.857 223.110, 213.253 217.129, 203.257 205.924 C 201.054 203.454, 201.033 203.280, 202.756 201.720 C 203.745 200.826, 207.121 198.918, 210.258 197.482 C 213.395 196.046, 216.174 194.527, 216.434 194.106 C 216.694 193.686, 213.333 191.516, 208.964 189.284 C 204.596 187.052, 201.268 185.625, 201.570 186.113 C 201.871 186.601, 201.526 187, 200.802 187 C 199.866 187, 199.584 185.767, 199.825 182.735 C 200.103 179.238, 199.689 177.956, 197.527 175.623 C 196.076 174.058, 195.113 172.553, 195.387 172.279 C 196.376 171.291, 201.892 174.480, 202.373 176.318 C 202.924 178.424, 205 177.703, 205 175.406 C 205 174.594, 205.739 172.802, 206.642 171.424 C 207.965 169.404, 208.062 168.432, 207.144 166.416 C 206.042 163.998, 206.221 163.817, 212.559 160.974 C 222.709 156.420, 229.446 154.947, 243.029 154.314 C 256.400 153.691, 273.502 155.379, 272.370 157.210 C 271.986 157.832, 272.551 157.960, 273.855 157.546 C 275.012 157.179, 276.756 157.362, 277.730 157.953 C 279.161 158.822, 278.925 158.914, 276.500 158.433 C 274.445 158.026, 273.928 158.139, 274.857 158.794 C 275.805 159.462, 275.880 159.956, 275.107 160.434 C 274.498 160.810, 274 160.641, 274 160.059 C 274 159.477, 273.523 159, 272.941 159 C 272.359 159, 272.189 159.497, 272.564 160.104 C 272.939 160.711, 272.178 160.521, 270.873 159.681 C 269.568 158.841, 266.993 158.007, 265.152 157.827 C 261.898 157.509, 261.754 157.655, 260.025 163 C 259.047 166.025, 257.001 171.200, 255.479 174.500 C 252.724 180.470, 252.707 180.485, 251.950 177.500 C 251.532 175.850, 250.849 172.250, 250.432 169.500 L 249.674 164.500 248.524 171 C 247.097 179.056, 243.153 191, 241.918 191 C 241.413 191, 240.942 189.762, 240.870 188.250 C 240.799 186.738, 240.367 188.875, 239.912 193 C 238.817 202.900, 237.437 207.447, 233.656 213.601 C 230.526 218.695, 230.515 218.701, 225.157 218.755 C 222.206 218.784, 219.290 219.310, 218.677 219.923 C 217.858 220.742, 218.481 220.895, 221.031 220.500 C 223.694 220.087, 224.035 220.182, 222.500 220.911 C 220.577 221.823, 220.587 221.862, 222.750 221.930 C 223.988 221.968, 225 221.598, 225 221.107 C 225 220.616, 225.713 219.940, 226.584 219.606 C 229.516 218.481, 224.879 223.664, 219.155 227.908 L 213.810 231.872 219.655 234.964 C 225.760 238.193, 223.659 238.152, 216.129 234.896 L 211.758 233.005 204.129 236.664 C 199.933 238.676, 195.600 240.273, 194.500 240.214 C 193.400 240.154, 194.300 240.722, 196.500 241.476 C 198.700 242.230, 202.525 242.921, 205 243.013 C 209.473 243.179, 209.481 243.186, 206.299 244.106 C 204.539 244.615, 202.782 245.544, 202.395 246.170 C 201.962 246.870, 202.136 247.034, 202.845 246.595 C 203.530 246.173, 204 246.517, 204 247.441 C 204 248.298, 204.563 249.007, 205.250 249.015 C 206.186 249.027, 206.165 249.243, 205.166 249.876 C 203.459 250.958, 205.855 252, 210.050 252 C 212.309 252, 212.801 252.355, 212.311 253.632 C 211.761 255.064, 212.466 255.205, 218.093 254.786 C 223.848 254.357, 224.723 254.546, 226.695 256.647 C 228.053 258.093, 229.140 258.582, 229.545 257.928 C 229.981 257.222, 230.749 257.351, 231.849 258.314 C 234.220 260.389, 239.652 263.014, 240.278 262.388 C 240.571 262.096, 242.778 262.524, 245.183 263.341 C 248.889 264.599, 251.136 264.724, 258.309 264.073 C 258.754 264.033, 258.797 263.480, 258.405 262.845 C 257.960 262.127, 258.130 261.963, 258.855 262.410 C 259.495 262.806, 261.201 262.201, 262.645 261.065 C 264.088 259.929, 265.847 259, 266.552 259 C 267.257 259, 268.060 258.438, 268.338 257.750 C 268.720 256.801, 268.861 256.794, 268.921 257.719 C 268.964 258.389, 269.629 258.696, 270.399 258.400 C 271.168 258.105, 272.095 258.344, 272.458 258.932 C 272.821 259.519, 273.654 259.993, 274.309 259.985 C 275.170 259.974, 275.189 259.766, 274.376 259.235 C 272.931 258.291, 274.443 253.998, 276.218 254.006 C 276.923 254.009, 279.203 254.484, 281.284 255.062 C 286.035 256.381, 289.648 255.486, 287.930 253.416 C 286.732 251.972, 287.594 251.516, 290.750 251.925 C 291.438 252.015, 292 251.445, 292 250.660 C 292 249.876, 292.945 248.986, 294.101 248.684 C 295.256 248.382, 295.908 247.659, 295.549 247.079 C 295.138 246.415, 295.533 246.267, 296.612 246.681 C 297.749 247.118, 298.092 246.958, 297.629 246.209 C 297.244 245.587, 295.258 244.744, 293.215 244.336 C 289.524 243.600, 289.538 243.590, 295.399 242.815 C 298.644 242.386, 301.510 241.823, 301.768 241.565 C 302.608 240.726, 299.620 238.557, 293.816 235.793 L 288.132 233.086 281.964 235.593 C 278.572 236.971, 275.353 237.951, 274.810 237.770 C 274.267 237.589, 276.359 236.390, 279.457 235.106 C 282.555 233.822, 284.958 232.440, 284.795 232.034 C 284.633 231.629, 282.025 229.262, 279 226.776 C 275.975 224.289, 273.612 221.747, 273.750 221.127 C 273.887 220.507, 273.662 220.053, 273.250 220.118 C 271.268 220.431, 270.651 219.870, 272 218.982 C 273.179 218.206, 272.985 218.048, 271.096 218.247 C 269.143 218.452, 268.068 217.471, 265.370 213.024 C 259.650 203.594, 258.523 192.293, 263.395 193.225 C 265.146 193.559, 265.635 193.139, 265.799 191.157 C 265.912 189.788, 267.847 185.256, 270.099 181.084 C 274.585 172.774, 278.331 163.678, 276.904 164.559 C 275.198 165.614, 276.003 164.121, 278.750 161.134 L 281.500 158.145 289.927 162.130 C 294.562 164.322, 299.624 167.020, 301.177 168.126 C 304.356 170.390, 304.883 169.668, 302.250 166.655 C 301.127 165.369, 302.112 165.746, 305 167.707 C 311.610 172.195, 319.761 181.253, 322.588 187.250 C 324.311 190.906, 324.883 191.589, 324.472 189.500 C 322.766 180.821, 313.417 170.003, 300.106 161.305 C 294.349 157.544, 293.970 157.086, 295.798 156.108 C 297.232 155.341, 298.705 155.350, 300.972 156.140 C 303.764 157.114, 304.317 156.993, 305.627 155.122 C 307.830 151.977, 309.181 152.509, 308.492 156.250 C 308.013 158.850, 308.307 159.754, 309.964 160.769 C 311.790 161.889, 312.138 161.767, 312.907 159.744 C 313.387 158.482, 314.078 153.186, 314.443 147.975 L 315.106 138.500 311.143 135.750 C 307.198 133.012, 305.443 132.290, 306.367 133.785 C 306.634 134.217, 303.848 134.481, 300.176 134.372 C 296.504 134.263, 292.288 134.629, 290.807 135.185 C 288.706 135.973, 286.728 135.714, 281.807 134.007 C 278.338 132.803, 272.198 131.184, 268.162 130.409 C 258.957 128.641, 239.559 128.717, 231 130.554 M 323.221 132.598 C 323.038 134.807, 323.383 135, 327.511 135 C 329.980 135, 332 134.785, 332 134.523 C 332 133.712, 327.354 130.953, 325.334 130.564 C 323.915 130.291, 323.369 130.816, 323.221 132.598 M 188.500 137 C 189.495 138.100, 190.915 139, 191.655 139 C 192.395 139, 193 139.402, 193 139.893 C 193 140.384, 193.739 141.069, 194.641 141.416 C 196.076 141.966, 196.108 141.830, 194.891 140.336 C 193.666 138.830, 193.709 138.704, 195.250 139.281 C 197.765 140.224, 197.406 139.496, 194.377 137.511 C 192.934 136.566, 192.061 136.289, 192.436 136.896 C 192.826 137.528, 192.425 138, 191.500 138 C 190.532 138, 190.168 137.536, 190.595 136.845 C 191.038 136.130, 190.870 135.962, 190.155 136.405 C 189.520 136.797, 189 136.641, 189 136.059 C 189 135.477, 188.480 135, 187.845 135 C 187.190 135, 187.474 135.866, 188.500 137 M 324.564 141.293 C 324.940 142.279, 325.499 142.834, 325.807 142.526 C 326.115 142.219, 325.808 141.412, 325.124 140.733 C 324.136 139.753, 324.022 139.868, 324.564 141.293 M 101.960 142.831 C 97.259 146.638, 102.468 152.960, 107.907 150.050 C 110.685 148.563, 110.615 144.544, 107.777 142.557 C 104.976 140.594, 104.707 140.607, 101.960 142.831 M 169.079 142.583 C 169.127 143.748, 169.364 143.985, 169.683 143.188 C 169.972 142.466, 169.936 141.603, 169.604 141.271 C 169.272 140.939, 169.036 141.529, 169.079 142.583 M 327 145 C 327 145.615, 326.550 145.840, 326 145.500 C 325.450 145.160, 325 145.809, 325 146.941 C 325 148.333, 325.648 149, 327 149 C 329.121 149, 329.865 145.653, 328 144.500 C 327.450 144.160, 327 144.385, 327 145 M 169 147.149 C 169 148.549, 169.749 149, 172.073 149 C 174.462 149, 175.072 148.610, 174.811 147.250 C 174.325 144.722, 169 144.629, 169 147.149 M 202 149.317 C 204.179 151.569, 206.190 151.762, 206.529 149.750 C 206.691 148.787, 206.413 148, 205.912 148 C 205.410 148, 205 148.466, 205 149.035 C 205 149.714, 204.226 149.674, 202.750 148.918 C 200.728 147.883, 200.652 147.924, 202 149.317 M 148.853 156.659 C 146.689 157.247, 145.899 160.479, 147.412 162.548 C 150.068 166.182, 156.779 162.047, 154.388 158.250 C 153.222 156.400, 151.562 155.922, 148.853 156.659 M 170.500 163.674 C 160.870 164.876, 160.232 167, 169.500 167 C 175.333 167, 176 166.795, 176 165 C 176 163.900, 175.438 163.067, 174.750 163.150 C 174.063 163.232, 172.150 163.468, 170.500 163.674 M 323 164.796 C 323 166.883, 325.507 167.388, 334.470 167.104 C 344.324 166.793, 350.084 165.088, 341.500 165.023 C 338.750 165.003, 333.462 164.699, 329.750 164.348 C 325.170 163.916, 323 164.060, 323 164.796 M 347 165.241 C 347 166.144, 347.391 167.123, 347.868 167.419 C 348.346 167.714, 349.036 170.328, 349.403 173.228 C 349.770 176.127, 350.343 180.035, 350.676 181.911 C 351.196 184.834, 351.040 185.230, 349.590 184.673 C 348.588 184.288, 348.146 184.427, 348.507 185.011 C 349.681 186.911, 347.270 185.979, 344.595 183.500 C 343.111 182.125, 341.539 181, 341.101 181 C 340.664 181, 339.279 180.109, 338.024 179.021 C 336.769 177.932, 335.237 177.344, 334.621 177.713 C 333.955 178.111, 334.004 177.761, 334.741 176.850 C 336.176 175.077, 335.446 173.892, 333.402 174.676 C 332.587 174.989, 332 174.592, 332 173.729 C 332 172.913, 331.386 171.736, 330.636 171.113 C 326.846 167.967, 333.081 181.481, 336.963 184.824 C 337.808 185.552, 337.994 185.898, 337.376 185.593 C 336.757 185.287, 337.621 188.966, 339.296 193.769 C 341.934 201.331, 342.344 203.906, 342.361 213 C 342.385 226.840, 338.567 239.699, 332.200 247.220 C 330.923 248.729, 330.935 249.344, 332.303 252.227 C 333.880 255.550, 338 274.087, 338 277.860 C 338 279.044, 339.684 281.259, 342 283.120 C 344.200 284.888, 346 286.856, 346 287.493 C 346 288.130, 347.171 289.742, 348.601 291.076 C 351.778 294.036, 357.501 305.131, 359.074 311.380 C 359.711 313.908, 360.591 315.753, 361.030 315.481 C 361.470 315.210, 362.019 315.553, 362.252 316.244 C 362.485 316.935, 363.759 314.055, 365.085 309.844 C 366.410 305.633, 367.903 302.440, 368.402 302.748 C 368.901 303.057, 369.029 302.856, 368.687 302.302 C 367.884 301.004, 371.117 294.682, 375.149 289.665 C 377.181 287.137, 380.541 284.723, 384.571 282.895 L 390.835 280.055 391.636 273.277 C 392.077 269.550, 392.452 262.900, 392.469 258.500 L 392.500 250.500 388.500 249.892 L 384.500 249.284 389.250 249.142 C 394.259 248.992, 395.008 248.151, 392.429 245.571 C 391.564 244.707, 391.339 244, 391.929 244 C 392.518 244, 393 243.100, 393 242 C 393 240.900, 392.659 240, 392.243 240 C 391.826 240, 391.645 237.996, 391.840 235.547 L 392.194 231.094 388.347 231.706 C 386.231 232.043, 383.150 233.318, 381.500 234.541 C 377.287 237.663, 371.928 240.262, 371.202 239.535 C 370.865 239.199, 370.403 235.996, 370.176 232.418 C 369.653 224.215, 367.698 224.314, 367 232.578 L 366.500 238.500 362.109 236.285 L 357.717 234.069 360.860 232.285 C 362.764 231.204, 363.796 229.951, 363.479 229.109 C 363.110 228.131, 363.347 227.982, 364.274 228.609 C 365 229.099, 364.802 228.766, 363.833 227.869 C 362.392 226.534, 362.247 225.626, 363.036 222.875 C 363.566 221.026, 364 219.157, 364 218.721 C 364 217.553, 359.907 219.865, 356.735 222.824 L 353.969 225.404 354.623 221.952 C 354.983 220.053, 356.115 216.250, 357.138 213.500 C 360.151 205.403, 359.910 204.895, 352.511 203.777 C 349.639 203.343, 349.453 200.209, 352.162 197.860 L 354.492 195.838 351.746 196.528 C 349.926 196.984, 349 196.823, 349 196.049 C 349 195.407, 348.574 195.146, 348.052 195.468 C 347.510 195.803, 347.331 195.079, 347.633 193.777 C 347.923 192.525, 348.199 190.957, 348.247 190.294 C 348.294 189.631, 348.708 189.320, 349.167 189.603 C 349.625 189.886, 350 189.566, 350 188.892 C 350 188.218, 350.284 187.951, 350.631 188.298 C 351.856 189.522, 355 186.901, 355 184.656 C 355 183.406, 353.619 178.584, 351.930 173.941 C 348.818 165.384, 347 162.175, 347 165.241 M 280.233 171.789 C 277.406 177.662, 277.391 178.844, 280.172 176.405 C 281.366 175.357, 281.996 175.093, 281.571 175.817 C 280.982 176.822, 281.579 177.045, 284.086 176.759 C 285.893 176.552, 287.480 175.836, 287.611 175.167 C 287.758 174.417, 287.646 174.370, 287.318 175.045 C 287.001 175.698, 286.181 175.276, 285.290 174.003 C 284.466 172.827, 283.187 172.098, 282.447 172.382 C 281.565 172.720, 281.301 172.379, 281.680 171.392 C 281.998 170.563, 282.875 170.122, 283.629 170.411 C 284.383 170.700, 285 170.501, 285 169.969 C 285 169.436, 284.523 169, 283.941 169 C 283.359 169, 283.160 168.550, 283.500 168 C 283.840 167.450, 283.754 167.017, 283.309 167.039 C 282.864 167.060, 281.480 169.198, 280.233 171.789 M 169.625 169.798 C 169.354 170.237, 169.532 171.243, 170.022 172.035 C 170.693 173.121, 170.870 172.924, 170.743 171.237 C 170.560 168.810, 170.379 168.577, 169.625 169.798 M 283.500 175 C 283.840 175.550, 284.316 176, 284.559 176 C 284.802 176, 285 175.550, 285 175 C 285 174.450, 284.523 174, 283.941 174 C 283.359 174, 283.160 174.450, 283.500 175 M 89.667 178.667 C 89.300 179.033, 89 180.152, 89 181.153 C 89 182.295, 87.669 183.529, 85.428 184.466 C 81.789 185.986, 81.565 188, 85.035 188 C 86.238 188, 87.675 189.396, 88.895 191.750 C 90.596 195.035, 90.918 195.252, 91.491 193.500 C 92.735 189.692, 93.714 188.499, 95.852 188.180 C 98.750 187.749, 98.581 185.363, 95.600 184.614 C 94.115 184.242, 92.800 182.866, 92.152 181.006 C 91.053 177.855, 90.757 177.576, 89.667 178.667 M 164.241 179.498 C 164.649 179.948, 164.481 180.920, 163.869 181.658 C 163.169 182.502, 163.132 183, 163.771 183 C 165.332 183, 166.067 180.152, 164.706 179.372 C 164.043 178.991, 163.834 179.048, 164.241 179.498 M 208.019 181.444 L 205.539 182.817 208.103 182.659 C 209.513 182.571, 210.667 181.938, 210.667 181.250 C 210.667 180.563, 210.629 180.016, 210.583 180.035 C 210.537 180.055, 209.384 180.689, 208.019 181.444 M 397.198 181.750 C 393.789 184.697, 393.541 187.632, 396.455 190.545 C 399.057 193.148, 401.677 193.214, 404.750 190.755 C 406.882 189.049, 406.275 183.306, 403.777 181.557 C 400.926 179.560, 399.689 179.596, 397.198 181.750 M 356 183.500 C 356 184.325, 356.177 185, 356.393 185 C 356.609 185, 357.045 184.325, 357.362 183.500 C 357.678 182.675, 357.501 182, 356.969 182 C 356.436 182, 356 182.675, 356 183.500 M 141.683 189.802 C 140.496 193.133, 140.192 196.018, 140.640 199.719 C 141.141 203.864, 140.891 205.509, 139.423 207.719 C 138.406 209.248, 137.514 210.950, 137.440 211.500 C 137.365 212.050, 137.236 212.980, 137.152 213.567 C 137.060 214.211, 134.392 214.591, 130.408 214.527 C 125.138 214.443, 123.611 214.056, 122.795 212.598 C 122.234 211.595, 120.859 209.859, 119.739 208.739 C 118.620 207.620, 117.738 205.514, 117.779 204.059 C 117.834 202.135, 117.329 201.375, 115.927 201.269 C 113.769 201.107, 113.327 202.513, 115.250 203.428 C 115.938 203.755, 115.521 203.843, 114.325 203.624 C 112.785 203.343, 112.305 203.632, 112.682 204.613 C 112.975 205.376, 112.752 206, 112.186 206 C 111.621 206, 110.849 207.410, 110.471 209.133 C 109.965 211.438, 109.551 211.901, 108.907 210.883 C 107.641 208.886, 107.798 210.754, 109.100 213.186 C 109.902 214.686, 109.901 215.057, 109.093 214.557 C 108.484 214.181, 107.698 214.622, 107.347 215.538 C 106.996 216.453, 107.239 217.530, 107.888 217.931 C 109.150 218.711, 108.366 222, 106.918 222 C 106.441 222, 106.320 223.350, 106.650 225 C 107.032 226.911, 106.842 228, 106.125 228 C 103.626 228, 105.562 271.898, 108.103 272.835 C 108.603 273.020, 108.772 273.560, 108.478 274.035 C 107.726 275.252, 111.782 277.242, 113.271 276.386 C 113.947 275.997, 114.174 276.040, 113.776 276.480 C 113.378 276.921, 114.997 278.515, 117.373 280.022 C 123.588 283.963, 126.906 289.047, 129.431 298.500 C 130.019 300.700, 130.950 302.473, 131.500 302.441 C 132.050 302.409, 133.106 304.209, 133.846 306.441 C 134.587 308.673, 135.665 310.950, 136.243 311.500 C 136.954 312.177, 137.079 312.119, 136.630 311.319 C 136.266 310.670, 136.425 309.856, 136.984 309.510 C 137.543 309.165, 138 309.359, 138 309.941 C 138 312.794, 140.080 310.270, 143.381 303.414 C 147.251 295.373, 150.958 290.163, 157.539 283.517 C 161.343 279.675, 161.646 278.925, 162.762 270.580 C 163.414 265.708, 164.898 258.711, 166.059 255.031 L 168.171 248.341 165.629 244.595 C 162.464 239.931, 159.157 231.211, 157.828 224.027 C 156.752 218.206, 157.198 200.844, 158.511 197.500 C 158.942 196.400, 159.914 193.958, 160.671 192.073 C 162.273 188.079, 161.357 186.572, 158.369 188.289 C 151.921 191.994, 150.198 192.772, 147.163 193.350 L 143.827 193.985 144.484 190.095 C 145.432 184.482, 143.646 184.295, 141.683 189.802 M 363.889 187.861 C 360.962 190.521, 360.777 190.945, 362.527 190.971 C 363.643 190.987, 365.580 191.718, 366.834 192.596 C 368.087 193.474, 370.349 194.387, 371.860 194.625 C 374.187 194.992, 375.024 194.421, 377.334 190.893 C 378.834 188.602, 379.813 186.479, 379.509 186.176 C 379.206 185.873, 376.330 185.434, 373.118 185.202 C 367.714 184.811, 367.025 185.010, 363.889 187.861 M 107.564 189.293 C 107.940 190.279, 108.499 190.834, 108.807 190.526 C 109.115 190.219, 108.808 189.412, 108.124 188.733 C 107.136 187.753, 107.022 187.868, 107.564 189.293 M 124.455 196.455 C 121.216 199.693, 121.356 201.580, 124.926 202.824 C 128.529 204.080, 129.775 203.904, 133.154 201.659 C 136.134 199.679, 136.252 197.389, 133.480 195.362 C 130.662 193.301, 127.187 193.722, 124.455 196.455 M 276.011 200.487 C 274.349 202.489, 275.456 205, 278 205 C 279.135 205, 280.324 204.319, 280.643 203.487 C 281.218 201.990, 279.457 199, 278 199 C 277.585 199, 276.689 199.669, 276.011 200.487 M 166.269 202.750 C 165.846 204.262, 165.527 209.775, 165.559 215 C 165.632 226.776, 168.159 234.939, 174.921 245.243 C 186.739 263.252, 204.643 273.543, 231.264 277.628 C 243.410 279.491, 264.531 278.997, 275.743 276.587 C 292.329 273.022, 309.296 264.043, 318.181 254.128 C 324.136 247.482, 330.602 235.767, 332.571 228.053 C 334.403 220.876, 334.257 202.857, 332.351 200.951 C 331.579 200.179, 331.405 202.521, 331.738 209.186 C 332.333 221.079, 330.359 229.788, 324.772 239.924 C 319.475 249.534, 313.436 256.047, 304.209 262.102 C 289.368 271.840, 273.139 275.991, 249.881 275.997 C 213.983 276.005, 189.417 264.658, 175.807 241.782 C 169.481 231.149, 167.710 224.413, 167.779 211.250 C 167.812 205.063, 167.658 200, 167.438 200 C 167.218 200, 166.692 201.238, 166.269 202.750 M 219.180 202.250 C 219.390 203.727, 220.187 204.500, 221.500 204.500 C 222.813 204.500, 223.610 203.727, 223.820 202.250 C 224.082 200.404, 223.665 200, 221.500 200 C 219.335 200, 218.918 200.404, 219.180 202.250 M 373 203.784 C 373 204.216, 371.653 205.364, 370.007 206.337 C 368.361 207.309, 366.513 209.042, 365.900 210.188 C 364.874 212.104, 364.995 212.218, 367.408 211.612 C 369.980 210.967, 370.019 211.032, 369.393 214.942 L 368.755 218.931 372.016 217.996 C 379.247 215.922, 381.302 211.574, 377.444 206.515 C 374.918 203.203, 373 202.025, 373 203.784 M 288.160 206.316 C 288.072 207.864, 287.497 210.114, 286.883 211.316 C 285.845 213.346, 285.886 213.386, 287.457 211.890 C 288.605 210.797, 289.015 209.194, 288.734 206.890 C 288.368 203.890, 288.302 203.824, 288.160 206.316 M 210.509 207.969 C 210.800 209.877, 211.491 211.891, 212.046 212.446 C 212.724 213.124, 212.743 212.479, 212.106 210.477 C 210.396 205.112, 209.972 204.447, 210.509 207.969 M 323.921 212.250 C 325.025 213.710, 325.017 214.003, 323.872 214.015 C 322.721 214.028, 322.719 214.169, 323.857 214.890 C 324.744 215.452, 324.850 215.974, 324.165 216.398 C 323.588 216.755, 322.820 219.174, 322.458 221.773 C 320.773 233.895, 315.807 244.364, 307.689 252.910 C 304.277 256.501, 304.057 256.934, 306.500 255.241 C 310.099 252.748, 316.914 245.655, 319.703 241.500 C 322.580 237.215, 326.041 226.100, 326.112 220.918 C 326.190 215.299, 325.724 213.287, 323.988 211.740 C 322.808 210.688, 322.798 210.766, 323.921 212.250 M 289.300 214.365 C 288.234 216.183, 282.612 219, 280.050 219 C 276.975 219, 277.581 220.543, 280.750 220.782 C 284.123 221.036, 290 217.621, 290 215.408 C 290 214.353, 290.543 213.994, 291.552 214.382 C 292.442 214.723, 292.843 214.555, 292.493 213.989 C 291.633 212.597, 290.240 212.761, 289.300 214.365 M 241.750 218.107 C 240.708 218.698, 240 220.283, 240 222.024 C 240 224.259, 240.704 225.313, 242.986 226.493 C 246.243 228.177, 247.579 231.557, 246.573 235.566 C 245.867 238.377, 240.354 241.316, 236.759 240.799 C 233.728 240.362, 233.426 242.781, 236.345 244.111 C 239.542 245.568, 245.218 244.521, 247.442 242.064 C 249.122 240.208, 249.234 240.219, 252.719 242.584 C 256.751 245.321, 262.136 245.746, 264.020 243.476 C 265.668 241.490, 264.864 240.801, 260.431 240.403 C 251.741 239.624, 249.273 230.397, 256.598 226.075 C 259.982 224.078, 260.788 221.794, 259.069 219.077 C 257.978 217.353, 244.418 216.594, 241.750 218.107 M 124.271 219.092 C 125.245 219.659, 125.818 220.485, 125.545 220.928 C 125.271 221.371, 125.926 222.528, 127 223.500 C 128.074 224.472, 128.712 225.657, 128.417 226.134 C 128.123 226.610, 128.359 227, 128.941 227 C 129.523 227, 130 225.687, 130 224.082 C 130 222.477, 130.273 220.452, 130.607 219.582 C 131.104 218.286, 130.426 218.005, 126.857 218.030 C 123.378 218.055, 122.857 218.269, 124.271 219.092 M 134 219.583 C 134 221.349, 136.153 221.042, 136.771 219.188 C 136.989 218.534, 136.454 218, 135.583 218 C 134.713 218, 134 218.713, 134 219.583 M 215.564 219.707 C 215.022 221.132, 215.136 221.247, 216.124 220.267 C 216.808 219.588, 217.115 218.781, 216.807 218.474 C 216.499 218.166, 215.940 218.721, 215.564 219.707 M 382.648 219.515 C 381.632 220.259, 381.082 221.323, 381.427 221.881 C 381.795 222.478, 381.219 222.735, 380.027 222.505 C 378.912 222.290, 378 222.566, 378 223.116 C 378 223.667, 377.550 223.840, 377 223.500 C 376.450 223.160, 376 223.359, 376 223.941 C 376 224.523, 375.212 225.007, 374.250 225.015 C 372.754 225.028, 372.718 225.172, 374 226 C 375.235 226.798, 375.250 226.972, 374.083 226.985 C 373.304 226.993, 372.967 227.301, 373.335 227.668 C 373.702 228.036, 375.015 227.846, 376.252 227.246 C 377.488 226.646, 379.702 225.896, 381.170 225.579 C 383.138 225.154, 384.018 224.193, 384.515 221.929 C 385.340 218.176, 385.029 217.774, 382.648 219.515 M 248.750 220.662 C 249.438 220.940, 250.563 220.940, 251.250 220.662 C 251.938 220.385, 251.375 220.158, 250 220.158 C 248.625 220.158, 248.063 220.385, 248.750 220.662 M 200.323 227.610 C 204.401 229.821, 211.177 232.096, 210.521 231.035 C 209.978 230.155, 199.640 225.960, 198.212 226.040 C 197.821 226.062, 198.770 226.769, 200.323 227.610 M 294.296 228.328 C 289.163 230.544, 286.794 232.047, 288.583 231.951 C 289.985 231.875, 301.641 226.178, 300.500 226.126 C 299.950 226.101, 297.158 227.092, 294.296 228.328 M 82.291 246.214 C 82.365 247.196, 82.780 248, 83.213 248 C 83.646 248, 84.338 248.006, 84.750 248.013 C 85.162 248.020, 85.546 247.216, 85.603 246.227 C 85.666 245.133, 85.012 244.429, 83.931 244.429 C 82.844 244.429, 82.209 245.120, 82.291 246.214 M 350.500 251.531 C 348.850 252.883, 348.037 253.992, 348.693 253.995 C 349.942 254, 357 250.097, 357 249.401 C 357 248.137, 353.070 249.424, 350.500 251.531 M 414.500 257 C 414.840 257.550, 415.541 258, 416.059 258 C 416.577 258, 417 257.550, 417 257 C 417 256.450, 416.298 256, 415.441 256 C 414.584 256, 414.160 256.450, 414.500 257 M 174.593 259.143 C 174.359 259.889, 173.896 262.430, 173.565 264.790 C 173.019 268.682, 173.253 269.344, 176.094 271.938 C 177.815 273.511, 181.086 275.572, 183.362 276.518 C 185.638 277.465, 188.400 278.643, 189.500 279.135 C 192.978 280.693, 205.155 284.004, 214.975 286.062 C 230.667 289.350, 247.018 290.443, 262.182 289.217 C 275.220 288.163, 298.211 283.925, 294.750 283.213 C 292.683 282.788, 292.534 281.870, 294.250 280.141 C 295.253 279.131, 295.105 279.021, 293.500 279.588 C 292.182 280.053, 291.841 279.958, 292.500 279.309 C 293.050 278.767, 296.425 277.293, 300 276.033 C 313.768 271.180, 325 264.403, 325 260.949 C 325 258.322, 324.702 258.414, 318.707 262.875 C 302.465 274.960, 272.783 281.945, 242.973 280.696 C 216.470 279.585, 190.448 271.724, 178.980 261.363 C 176.227 258.876, 174.890 258.199, 174.593 259.143 M 170.191 284.209 C 167.901 285.624, 167.073 286.749, 167.502 287.865 C 168.934 291.598, 170.989 309.179, 170.994 317.750 C 170.999 325.109, 171.293 327, 172.433 327 C 173.221 327, 174.162 326.066, 174.524 324.925 C 174.886 323.783, 175.426 323.093, 175.724 323.391 C 176.022 323.689, 177.106 322.864, 178.133 321.558 C 180.641 318.370, 180.576 309.728, 177.938 295.500 C 176.816 289.450, 175.846 283.938, 175.782 283.250 C 175.624 281.537, 174.093 281.800, 170.191 284.209 M 323.196 282.529 C 323.487 282.820, 322.888 286.983, 321.865 291.779 C 320.841 296.576, 319.715 305.915, 319.360 312.532 L 318.717 324.564 322.608 324.532 C 325.007 324.512, 326.547 324.979, 326.625 325.750 C 327.292 332.400, 328.793 324.119, 328.935 313 C 329.009 307.225, 329.720 298.900, 330.515 294.500 C 331.310 290.100, 331.970 286.424, 331.980 286.332 C 332.044 285.785, 325.041 282, 323.965 282 C 323.251 282, 322.905 282.238, 323.196 282.529 M 159.386 293.209 C 150.934 302.705, 145.756 316.632, 140.362 344.381 C 138.842 352.204, 138.808 353.568, 140.083 355.839 C 142.433 360.025, 150 360.795, 150 356.848 C 150 355.170, 150.282 355.080, 152.250 356.128 C 153.488 356.787, 155.042 358.041, 155.705 358.913 C 156.708 360.234, 156.824 359.997, 156.397 357.500 C 156.115 355.850, 155.235 353.503, 154.442 352.285 C 152.298 348.992, 152.694 348.364, 155.345 350.854 C 157.916 353.270, 161 352.874, 161 350.128 C 161 349.216, 160.054 346.677, 158.898 344.485 C 157.741 342.293, 157.315 340.996, 157.949 341.601 C 158.892 342.502, 164 342.421, 164 341.506 C 164 341.362, 163.309 339.590, 162.464 337.568 C 160.959 333.967, 160.970 333.913, 162.964 334.981 C 165.382 336.275, 165.286 338.229, 164.025 313.483 C 163.521 303.573, 162.729 294.442, 162.267 293.192 L 161.426 290.918 159.386 293.209 M 336.619 295.250 C 336.264 297.587, 335.691 308.050, 335.344 318.500 L 334.715 337.500 336.852 335 L 338.989 332.500 337.624 336 C 336.094 339.925, 336.446 342, 338.642 342 C 339.454 342, 339.900 341.646, 339.632 341.214 C 339.365 340.782, 339.974 340.429, 340.984 340.429 C 342.745 340.429, 342.740 340.590, 340.853 344.288 C 339.770 346.411, 339.023 349.501, 339.192 351.155 L 339.500 354.164 343.900 350.967 L 348.300 347.770 346.216 350.696 C 345.070 352.305, 343.847 354.945, 343.498 356.561 C 342.894 359.359, 342.939 359.407, 344.432 357.559 C 345.294 356.491, 346 356.164, 346 356.832 C 346 357.681, 346.728 357.569, 348.423 356.458 C 350.723 354.952, 350.820 354.972, 350.326 356.861 C 349.957 358.274, 350.261 358.785, 351.374 358.621 C 352.236 358.495, 353.224 358.109, 353.569 357.765 C 353.914 357.420, 354.793 357.367, 355.523 357.647 C 356.254 357.928, 357.552 357.087, 358.409 355.779 C 359.804 353.651, 359.815 352.459, 358.520 344.450 C 356.465 331.746, 351.550 312.869, 348.698 306.728 C 346.287 301.534, 339.065 291.044, 337.882 291.015 C 337.542 291.007, 336.973 292.913, 336.619 295.250 M 286.500 294.121 C 279.875 295.380, 269.581 296.229, 256 296.636 C 235.944 297.238, 231.103 296.896, 209.898 293.383 C 206.994 292.902, 206.160 293.140, 205.595 294.613 C 205.210 295.617, 205.194 296.139, 205.560 295.773 C 205.927 295.407, 207.863 295.744, 209.863 296.523 C 216.622 299.155, 236.963 301.953, 249.538 301.980 C 259.047 302.001, 278.721 299.818, 285.500 297.991 C 290.641 296.605, 296.974 293.716, 296.989 292.750 C 296.995 292.337, 296.887 292.050, 296.750 292.110 C 296.613 292.171, 292 293.075, 286.500 294.121 M 87.620 298.380 C 85.925 305.130, 91.966 315.011, 99.093 317.146 C 104.220 318.682, 110.338 316.920, 114.189 312.797 C 117.916 308.808, 117.792 307.331, 113.753 307.610 C 111.967 307.734, 109.945 307.369, 109.259 306.800 C 108.573 306.230, 106.917 305.974, 105.580 306.229 C 104 306.532, 102.161 305.886, 100.325 304.383 C 98.771 303.112, 96.664 302.056, 95.643 302.036 C 94.410 302.012, 93.979 301.496, 94.362 300.500 C 94.761 299.459, 94.292 299, 92.829 299 C 91.669 299, 90.175 298.254, 89.508 297.342 C 88.431 295.869, 88.221 295.984, 87.620 298.380 M 194.492 308.013 C 194.214 308.462, 194.553 309.036, 195.244 309.290 C 196.226 309.650, 196.237 310.029, 195.292 311.033 C 194.311 312.075, 193.796 312.075, 192.542 311.035 C 191.199 309.921, 191 310.238, 191 313.494 C 191 316.637, 190.706 317.156, 189.154 316.750 C 187.423 316.298, 187.267 317.460, 186.650 335.384 C 186.289 345.898, 185.739 357.200, 185.428 360.500 C 184.930 365.802, 185.030 366.296, 186.292 364.750 C 188.161 362.460, 189 362.537, 189 365 C 189 366.100, 189.563 366.888, 190.250 366.750 C 190.938 366.613, 191.506 367.256, 191.513 368.179 C 191.520 369.103, 191.786 370.120, 192.105 370.438 C 192.424 370.757, 192.768 367.976, 192.871 364.259 C 193.139 354.615, 194.075 354, 208.500 354 C 223.217 354, 223.871 354.471, 224.236 365.342 C 224.493 372.988, 224.425 373.243, 221.500 375.587 C 219.339 377.318, 217.242 377.993, 214 378.001 C 208.104 378.014, 201.210 379.893, 202.998 380.999 C 203.724 381.448, 204.922 381.583, 205.659 381.300 C 206.397 381.018, 207 381.213, 207 381.735 C 207 382.471, 212.260 384.660, 216 385.481 C 216.275 385.541, 218.188 385.928, 220.250 386.340 C 222.313 386.753, 224.002 387.408, 224.005 387.795 C 224.008 388.183, 225.921 388.609, 228.255 388.742 C 230.686 388.881, 232.986 389.644, 233.638 390.529 C 234.846 392.171, 237.017 392.157, 238.235 390.500 C 238.639 389.950, 238.976 385.597, 238.985 380.827 C 238.999 372.514, 238.875 372.029, 236 369.154 L 233 366.154 233.007 352.327 C 233.012 340.467, 233.281 338.093, 234.898 335.641 C 238.318 330.453, 241.677 329.014, 250.382 329.007 L 258.263 329 262.632 333.368 L 267 337.737 267 350.934 C 267 364.418, 266.363 367.307, 262.841 369.807 C 261.236 370.946, 261 372.582, 261 382.557 C 261 392.254, 261.238 394, 262.559 394 C 263.540 394, 263.840 393.537, 263.367 392.750 C 262.826 391.850, 263.075 391.872, 264.256 392.829 C 265.503 393.840, 266.327 393.888, 267.698 393.031 C 269.251 392.060, 269.154 391.989, 267 392.518 C 265.071 392.991, 264.842 392.891, 266 392.081 C 266.825 391.503, 268.314 391.024, 269.309 391.015 C 270.304 391.007, 270.860 390.582, 270.544 390.072 C 270.229 389.562, 270.765 388.916, 271.735 388.637 C 272.706 388.358, 276.771 387.179, 280.768 386.017 C 284.766 384.855, 288.451 384.160, 288.957 384.473 C 289.463 384.786, 290.242 384.443, 290.689 383.711 C 291.135 382.978, 292.613 381.619, 293.973 380.690 C 295.509 379.640, 295.888 378.992, 294.973 378.980 C 290.200 378.915, 280.494 376.898, 278.424 375.542 C 276.226 374.102, 276 373.275, 276 366.677 C 276 362.350, 276.487 358.913, 277.200 358.200 C 278.008 357.392, 282.565 357, 291.143 357 C 303.178 357, 303.973 357.124, 305.443 359.223 C 306.299 360.445, 307 363.145, 307 365.223 C 307 368.930, 308.185 370.127, 309.595 367.845 C 310.068 367.082, 309.866 366.965, 309 367.500 C 308.193 367.999, 307.934 367.916, 308.325 367.284 C 308.673 366.720, 310.329 365.984, 312.003 365.649 C 314.539 365.142, 314.964 364.661, 314.545 362.770 C 314.134 360.915, 312 323.693, 312 318.378 C 312 317.384, 311.391 317.059, 310.224 317.429 C 308.686 317.917, 308.499 317.456, 308.829 313.996 C 309.195 310.155, 307.950 308.653, 306.434 311.107 C 305.955 311.882, 305.505 311.817, 304.932 310.890 C 304.463 310.131, 304.623 308.946, 305.307 308.110 C 306.670 306.446, 306.804 306.416, 295.460 310.307 C 286.948 313.227, 278.367 314.768, 267 315.419 C 264.525 315.561, 262.275 315.812, 262 315.978 C 260.756 316.728, 254.118 316.618, 254.589 315.855 C 254.880 315.385, 254.641 315, 254.059 315 C 253.477 315, 253 315.398, 253 315.884 C 253 316.861, 247.334 316.667, 246.321 315.655 C 245.971 315.304, 245.120 315.485, 244.431 316.057 C 243.734 316.636, 242.935 316.704, 242.631 316.212 C 242.331 315.726, 239.703 315.505, 236.792 315.720 C 232.729 316.022, 231.848 315.854, 233 314.996 C 234.164 314.129, 233.763 314.024, 231.209 314.528 C 229.260 314.912, 227.359 314.713, 226.548 314.040 C 225.710 313.345, 224.949 313.274, 224.588 313.858 C 224.038 314.748, 221.527 314.534, 218 313.296 C 217.175 313.006, 214.875 312.602, 212.888 312.399 C 210.902 312.195, 206.063 310.942, 202.136 309.613 C 198.209 308.284, 194.769 307.564, 194.492 308.013 M 137.459 313.067 C 137.096 313.653, 137.070 314.403, 137.400 314.733 C 137.730 315.063, 138 314.782, 138 314.108 C 138 313.434, 138.520 313.203, 139.155 313.595 C 139.870 314.038, 140.038 313.870, 139.595 313.155 C 138.711 311.724, 138.299 311.707, 137.459 313.067 M 195.563 325.526 C 193.766 326.421, 193.462 327.628, 193.208 334.901 C 192.790 346.818, 193.019 347, 208.464 347 C 224.140 347, 224.190 346.965, 224.190 336.075 C 224.190 330.307, 223.764 327.336, 222.799 326.371 C 221.079 324.651, 198.716 323.958, 195.563 325.526 M 286.757 326.241 C 279.874 327.996, 275.048 336.758, 276.993 343.968 C 278.082 348.007, 283.131 354, 285.444 354 C 286.300 354, 287 354.477, 287 355.059 C 287 355.641, 287.398 355.872, 287.884 355.571 C 288.371 355.271, 290.828 354.947, 293.344 354.852 C 295.861 354.757, 297.689 354.306, 297.408 353.851 C 297.126 353.395, 297.482 353.238, 298.198 353.501 C 300.007 354.165, 301.459 353.011, 303.275 349.465 C 306.140 343.870, 306.352 339.690, 304.045 334.327 C 300.947 327.125, 294.717 324.211, 286.757 326.241 M 198.744 331.750 C 198.539 332.163, 198.456 333.063, 198.560 333.750 C 198.665 334.438, 198.806 336.390, 198.875 338.088 C 198.999 341.156, 199.028 341.171, 203.250 340.448 C 209.806 339.326, 211.397 339.307, 212.773 340.333 C 213.732 341.049, 213.875 340.816, 213.353 339.391 C 212.690 337.580, 212.746 337.574, 214.659 339.250 C 217.625 341.847, 218 341.483, 218 336 L 218 331 208.559 331 C 203.366 331, 198.950 331.337, 198.744 331.750 M 285.913 332.282 C 284.260 333.551, 281.593 337.954, 282.169 338.465 C 282.351 338.626, 284.300 339.642, 286.500 340.723 C 288.700 341.803, 291.945 343.543, 293.710 344.589 C 296.880 346.467, 296.940 346.466, 298.482 344.495 C 300.700 341.661, 299.700 336.050, 296.478 333.250 C 293.629 330.775, 288.490 330.304, 285.913 332.282 M 243.309 336.466 C 239.376 338.176, 238.762 340.824, 239.240 354 L 239.585 363.500 239.792 352.806 C 240.045 339.785, 241.423 337.410, 249.500 336.067 C 254.454 335.243, 254.463 335.235, 250.500 335.157 C 248.300 335.114, 245.064 335.703, 243.309 336.466 M 247.250 340.644 C 244.049 341.983, 247.136 347.506, 250.702 346.819 C 253.388 346.302, 253.210 340.567, 250.500 340.310 C 249.400 340.206, 247.938 340.356, 247.250 340.644 M 112.442 346.375 C 112.114 347.681, 110.643 349.328, 109.173 350.036 L 106.500 351.323 109.282 352.366 C 110.845 352.952, 112.317 354.415, 112.641 355.704 C 113.356 358.555, 115 358.725, 115 355.948 C 115 354.567, 115.981 353.554, 118 352.850 C 121.308 351.697, 122.023 350, 119.200 350 C 116.896 350, 115 348.104, 115 345.800 C 115 343.178, 113.139 343.596, 112.442 346.375 M 142.603 356.833 C 142.320 357.292, 142.723 357.667, 143.500 357.667 C 144.277 357.667, 144.680 357.292, 144.397 356.833 C 144.114 356.375, 143.710 356, 143.500 356 C 143.290 356, 142.886 356.375, 142.603 356.833 M 246.667 356.667 C 246.300 357.033, 246 365.808, 246 376.167 C 246 391.637, 246.250 395, 247.399 395 C 248.551 395, 248.793 391.555, 248.770 375.500 C 248.743 357.419, 248.459 354.874, 246.667 356.667 M 199 361.624 C 199 362.850, 199.634 363.070, 201.750 362.578 C 203.577 362.154, 204.037 362.248, 203.122 362.858 C 202.364 363.363, 202.053 364.277, 202.431 364.888 C 203.273 366.251, 215 366.385, 215 365.031 C 215 364.499, 215.715 364.337, 216.588 364.672 C 217.811 365.141, 218.098 364.733, 217.838 362.897 C 217.513 360.601, 217.156 360.503, 208.250 360.272 C 200.354 360.067, 199 360.265, 199 361.624 M 282.187 366.136 L 282.500 369.272 291.500 369.341 L 300.500 369.410 300.813 366.205 L 301.127 363 291.500 363 L 281.873 363 282.187 366.136 M 375 384.059 C 375 384.641, 374.517 384.819, 373.926 384.454 C 373.336 384.089, 373.444 384.738, 374.167 385.895 C 374.890 387.053, 375.775 388, 376.134 388 C 377.112 388, 378.089 384.952, 377.444 383.910 C 376.672 382.660, 375 382.762, 375 384.059 M 142 384.800 C 142 385.835, 144.165 388, 145.200 388 C 145.640 388, 146 387.100, 146 386 C 146 384.667, 145.333 384, 144 384 C 142.900 384, 142 384.360, 142 384.800 M 130 386.500 C 129.306 387.337, 129.197 388, 129.755 388 C 130.305 388, 131.315 387.325, 132 386.500 C 132.694 385.663, 132.803 385, 132.245 385 C 131.695 385, 130.685 385.675, 130 386.500 M 359.097 396.383 C 358.207 397.455, 358.317 397.908, 359.586 398.395 C 360.741 398.838, 361.059 398.597, 360.668 397.576 C 360.362 396.780, 360.650 395.911, 361.306 395.644 C 362.116 395.314, 362.137 395.132, 361.372 395.079 C 360.752 395.036, 359.728 395.622, 359.097 396.383 M 362 398.500 C 362 399.325, 362.177 400, 362.393 400 C 362.609 400, 363.045 399.325, 363.362 398.500 C 363.678 397.675, 363.501 397, 362.969 397 C 362.436 397, 362 397.675, 362 398.500" stroke="none" fill="black" fill-rule="evenodd"/>
</svg>